<?xml version="1.0" encoding="utf-8"?>
<!-- Generator: Adobe Illustrator 25.1.0, SVG Export Plug-In . SVG Version: 6.00 Build 0)  -->
<svg version="1.1" id="Layer_1" xmlns="http://www.w3.org/2000/svg" xmlns:xlink="http://www.w3.org/1999/xlink" x="0px" y="0px"
	 viewBox="0 0 512 512" style="enable-background:new 0 0 512 512;" xml:space="preserve">
<style type="text/css">
	.st0{fill:none;stroke:#7FA041;stroke-width:43;stroke-miterlimit:10;}
	.st1{fill:#7FA041;}
	.st2{fill:#FFFFFF;stroke:#FFFFFF;stroke-miterlimit:10;}
	.st3{fill:#FFFFFF;stroke:#7FA041;stroke-width:8;stroke-miterlimit:10;}
	.st4{fill:none;stroke:#7FA041;stroke-width:8;stroke-miterlimit:10;}
</style>
<g>
	<line class="st0" x1="83.3" y1="460.6" x2="83.3" y2="212.3"/>
	<line class="st0" x1="176.6" y1="460.6" x2="176.6" y2="127.6"/>
	<line class="st0" x1="305.8" y1="460.6" x2="305.8" y2="223.8"/>
	<path class="st1" d="M60.9,212.3c31.3-14.6,62.6-29.2,93.8-43.8c0,7.1,0,14.1,0,21.2c-16.1,7.5-32.2,15-48.3,22.6H60.9z"/>
	<path class="st1" d="M154.8,127.7c52.6-25.4,105.1-50.9,157.7-76.3c19,0,38,0,57,0c-57,25.4-113.9,50.8-170.9,76.3
		C184,127.6,169.4,127.7,154.8,127.7z"/>
	<path class="st1" d="M283.8,223.8c39.6-18.8,79.1-37.6,118.7-56.4c16.2,0.1,32.4,0.3,48.6,0.4c-41.1,18.6-82.2,37.3-123.3,55.9
		C313.2,223.8,298.5,223.8,283.8,223.8z"/>
	<path class="st2" d="M370,51.4"/>
	<path class="st3" d="M365.5,187.3c0-45.3,0.1-90.6,0.1-135.9"/>
	<line class="st4" x1="447.1" y1="167.8" x2="447.1" y2="365.9"/>
</g>
</svg>
