<?xml version="1.0" encoding="utf-8"?>
<!-- Generator: Adobe Illustrator 25.1.0, SVG Export Plug-In . SVG Version: 6.00 Build 0)  -->
<svg version="1.1" id="Layer_1" xmlns="http://www.w3.org/2000/svg" xmlns:xlink="http://www.w3.org/1999/xlink" x="0px" y="0px"
	 viewBox="0 0 512 512" style="enable-background:new 0 0 512 512;" xml:space="preserve">
<style type="text/css">
	.st0{fill:none;stroke:#949595;stroke-width:7;stroke-miterlimit:10;}
	.st1{fill:#949595;}
</style>
<g>
	<polygon class="st0" points="429,44.1 83,44.1 57,89 230,388.7 282,388.7 455,89 	"/>
	<polyline class="st0" points="83,44.1 230,298.8 254.8,251.7 160.8,89 455,89 	"/>
	<polyline class="st0" points="230,388.7 377.1,134 186.8,134 	"/>
	<line class="st0" x1="254.8" y1="251.7" x2="317.1" y2="134"/>
</g>
<g>
	<path class="st1" d="M54.1,433.2l10.7,29l10.7-29h4.7l-15.4,40.3l-15.4-40.3H54.1z"/>
	<path class="st1" d="M113.6,454.8l-12.5-21.7h4.9l9.7,17l9.8-17h4.9l-12.6,21.7v16.4h-4.2V454.8z"/>
	<path class="st1" d="M162.6,433.2c3.8,0,7,0.5,9.6,2.7c2.8,2.4,3.5,5.8,3.5,8.2c0,5.4-3.4,10.7-12,10.7h-3.7v16.5h-4.2v-38H162.6z
		 M159.9,450.7h3.5c5,0,8-2.5,8-6.9c0-6-5.6-6.6-8.4-6.6h-3.1V450.7z"/>
	<path class="st1" d="M221.3,437.2h-15.5v11.3h15v4h-15v14.8h15.5v4h-19.7v-38h19.7V437.2z"/>
	<path class="st1" d="M255.1,433.2c2.6,0,6.4,0.2,9.2,2.1c2.2,1.5,4.2,4.4,4.2,8.4c0,5.8-3.8,10.1-9.6,10.5l12.1,17h-5.1l-11.6-16.6
		h-1.1v16.6H249v-38H255.1z M253.3,450.8h2.7c5.2,0,8.4-2.5,8.4-7c0-2.1-0.6-4.2-3-5.6c-1.7-1-3.6-1.1-5.5-1.1h-2.6V450.8z"/>
	<path class="st1" d="M301.8,433.2v34h10.5v4h-14.7v-38H301.8z"/>
	<path class="st1" d="M342.2,433.2v38H338v-38H342.2z"/>
	<path class="st1" d="M371.9,471.2v-39.6l29.6,31.1v-29.5h4.2v39.7l-29.6-31.1v29.4H371.9z"/>
	<path class="st1" d="M439.8,449.5l16.2-16.3h5.7l-17.8,17.7l18.4,20.3h-5.8l-15.6-17.4l-1.1,1.1v16.4h-4.2v-38h4.2V449.5z"/>
</g>
</svg>
